<mxfile host="app.diagrams.net" agent="Mozilla/5.0 (Windows NT 10.0; Win64; x64) AppleWebKit/537.36 (KHTML, like Gecko) Chrome/128.0.0.0 Safari/537.36 OPR/114.0.0.0" version="24.8.0">
  <diagram name="Page-1" id="NaI_xgm7rYqE7tpyXVo8">
    <mxGraphModel dx="3105" dy="2348" grid="1" gridSize="10" guides="1" tooltips="1" connect="1" arrows="1" fold="1" page="1" pageScale="1" pageWidth="850" pageHeight="1100" math="0" shadow="0">
      <root>
        <mxCell id="0" />
        <mxCell id="1" parent="0" />
        <mxCell id="M_J3pWoGOmPgmqdxh5I2-1" value="IdGenerator" style="swimlane;whiteSpace=wrap;html=1;" parent="1" vertex="1">
          <mxGeometry x="380" y="420" width="130" height="70" as="geometry" />
        </mxCell>
        <mxCell id="M_J3pWoGOmPgmqdxh5I2-2" value="nextId: int&lt;div&gt;GetNextId(): int&lt;/div&gt;" style="text;html=1;align=left;verticalAlign=middle;resizable=0;points=[];autosize=1;strokeColor=none;fillColor=none;" parent="M_J3pWoGOmPgmqdxh5I2-1" vertex="1">
          <mxGeometry x="20" y="30" width="100" height="40" as="geometry" />
        </mxCell>
        <mxCell id="M_J3pWoGOmPgmqdxh5I2-38" style="edgeStyle=orthogonalEdgeStyle;rounded=0;orthogonalLoop=1;jettySize=auto;html=1;entryX=1;entryY=0.5;entryDx=0;entryDy=0;strokeColor=default;dashed=1;" parent="1" source="M_J3pWoGOmPgmqdxh5I2-3" target="M_J3pWoGOmPgmqdxh5I2-1" edge="1">
          <mxGeometry relative="1" as="geometry" />
        </mxCell>
        <mxCell id="M_J3pWoGOmPgmqdxh5I2-3" value="Item" style="swimlane;whiteSpace=wrap;html=1;" parent="1" vertex="1">
          <mxGeometry x="590" y="340" width="260" height="210" as="geometry" />
        </mxCell>
        <mxCell id="M_J3pWoGOmPgmqdxh5I2-4" value="-&amp;nbsp; _id: readonly int&lt;div&gt;-&amp;nbsp; _name: string&lt;/div&gt;&lt;div&gt;-&amp;nbsp; _info: double&lt;/div&gt;&lt;div&gt;-&amp;nbsp; _cost: double&amp;nbsp;&lt;/div&gt;&lt;div&gt;&lt;br&gt;&lt;/div&gt;" style="text;html=1;align=left;verticalAlign=middle;resizable=0;points=[];autosize=1;strokeColor=none;fillColor=none;" parent="M_J3pWoGOmPgmqdxh5I2-3" vertex="1">
          <mxGeometry x="10" y="30" width="120" height="90" as="geometry" />
        </mxCell>
        <mxCell id="M_J3pWoGOmPgmqdxh5I2-6" value="&lt;div style=&quot;text-align: left;&quot;&gt;&lt;span style=&quot;background-color: initial;&quot;&gt;+&amp;nbsp; &amp;nbsp;Name {get;set;}&amp;nbsp;&lt;/span&gt;&lt;span style=&quot;background-color: initial;&quot;&gt;(): string&lt;/span&gt;&lt;/div&gt;&lt;span style=&quot;background-color: initial;&quot;&gt;&lt;div style=&quot;text-align: left;&quot;&gt;&lt;span style=&quot;background-color: initial;&quot;&gt;+&amp;nbsp; &amp;nbsp;Info {get;set;}(): string&lt;/span&gt;&lt;/div&gt;&lt;/span&gt;&lt;span style=&quot;background-color: initial;&quot;&gt;&lt;div style=&quot;text-align: left;&quot;&gt;&lt;span style=&quot;background-color: initial;&quot;&gt;+&amp;nbsp; &amp;nbsp;Cost {get;set;}():double&lt;/span&gt;&lt;/div&gt;&lt;/span&gt;&lt;span style=&quot;background-color: initial;&quot;&gt;&lt;div style=&quot;text-align: left;&quot;&gt;&lt;span style=&quot;background-color: initial;&quot;&gt;+&amp;nbsp; &amp;nbsp;Category{get;set;}():Category&lt;/span&gt;&lt;/div&gt;&lt;/span&gt;&lt;span style=&quot;background-color: initial;&quot;&gt;&lt;div style=&quot;text-align: left;&quot;&gt;&lt;span style=&quot;background-color: initial;&quot;&gt;+&amp;nbsp; &amp;nbsp;Item(string, string, double, Category): void&lt;/span&gt;&lt;/div&gt;&lt;/span&gt;&lt;span style=&quot;background-color: initial;&quot;&gt;&lt;div style=&quot;text-align: left;&quot;&gt;&lt;span style=&quot;background-color: initial;&quot;&gt;+&amp;nbsp; &amp;nbsp;Item(): void&lt;/span&gt;&lt;/div&gt;&lt;/span&gt;" style="text;html=1;align=center;verticalAlign=middle;resizable=0;points=[];autosize=1;strokeColor=none;fillColor=none;" parent="M_J3pWoGOmPgmqdxh5I2-3" vertex="1">
          <mxGeometry y="110" width="260" height="100" as="geometry" />
        </mxCell>
        <mxCell id="M_J3pWoGOmPgmqdxh5I2-5" value="" style="endArrow=none;html=1;rounded=0;exitX=0;exitY=0.5;exitDx=0;exitDy=0;entryX=1;entryY=0.5;entryDx=0;entryDy=0;" parent="1" source="M_J3pWoGOmPgmqdxh5I2-3" target="M_J3pWoGOmPgmqdxh5I2-3" edge="1">
          <mxGeometry width="50" height="50" relative="1" as="geometry">
            <mxPoint x="540" y="470" as="sourcePoint" />
            <mxPoint x="750" y="449" as="targetPoint" />
          </mxGeometry>
        </mxCell>
        <mxCell id="M_J3pWoGOmPgmqdxh5I2-39" style="edgeStyle=orthogonalEdgeStyle;rounded=0;orthogonalLoop=1;jettySize=auto;html=1;exitX=1;exitY=0.5;exitDx=0;exitDy=0;entryX=0;entryY=0.5;entryDx=0;entryDy=0;dashed=1;" parent="1" source="M_J3pWoGOmPgmqdxh5I2-9" target="M_J3pWoGOmPgmqdxh5I2-1" edge="1">
          <mxGeometry relative="1" as="geometry" />
        </mxCell>
        <mxCell id="M_J3pWoGOmPgmqdxh5I2-41" style="edgeStyle=orthogonalEdgeStyle;rounded=0;orthogonalLoop=1;jettySize=auto;html=1;exitX=0.5;exitY=1;exitDx=0;exitDy=0;dashed=1;entryX=-0.003;entryY=0.46;entryDx=0;entryDy=0;entryPerimeter=0;" parent="1" source="M_J3pWoGOmPgmqdxh5I2-9" target="M_J3pWoGOmPgmqdxh5I2-16" edge="1">
          <mxGeometry relative="1" as="geometry">
            <mxPoint x="390" y="680" as="targetPoint" />
          </mxGeometry>
        </mxCell>
        <mxCell id="M_J3pWoGOmPgmqdxh5I2-9" value="Customer" style="swimlane;whiteSpace=wrap;html=1;" parent="1" vertex="1">
          <mxGeometry x="90" y="320" width="250" height="230" as="geometry" />
        </mxCell>
        <mxCell id="M_J3pWoGOmPgmqdxh5I2-11" value="-&amp;nbsp; &amp;nbsp;_id: readonly int&lt;div&gt;-&amp;nbsp; &amp;nbsp;_fullname: string&lt;/div&gt;&lt;div&gt;-&amp;nbsp; &amp;nbsp;_address: Address&lt;/div&gt;&lt;div&gt;-&amp;nbsp; &amp;nbsp;_cart: Cart&lt;/div&gt;&lt;div&gt;-&amp;nbsp; &amp;nbsp;_orders: List&amp;lt;Order&amp;gt;&lt;/div&gt;" style="text;html=1;align=left;verticalAlign=middle;resizable=0;points=[];autosize=1;strokeColor=none;fillColor=none;" parent="M_J3pWoGOmPgmqdxh5I2-9" vertex="1">
          <mxGeometry x="10" y="20" width="150" height="90" as="geometry" />
        </mxCell>
        <mxCell id="M_J3pWoGOmPgmqdxh5I2-12" value="+&amp;nbsp; &amp;nbsp;FullName {get;set;}():string&lt;div&gt;+&amp;nbsp; &amp;nbsp;CustomerAddress {get;set;}(): Address&lt;/div&gt;&lt;div&gt;+&amp;nbsp; &amp;nbsp;Cart {get;set;}(): Cart&lt;/div&gt;&lt;div&gt;+&amp;nbsp; &amp;nbsp;Orders{get;set;}():List&amp;lt;Order&amp;gt;&lt;/div&gt;&lt;div&gt;+&amp;nbsp; &amp;nbsp;Customer(string, Address): void&lt;/div&gt;&lt;div&gt;+&amp;nbsp; &amp;nbsp;Customer():void&lt;/div&gt;" style="text;html=1;align=left;verticalAlign=middle;resizable=0;points=[];autosize=1;strokeColor=none;fillColor=none;" parent="M_J3pWoGOmPgmqdxh5I2-9" vertex="1">
          <mxGeometry y="120" width="250" height="100" as="geometry" />
        </mxCell>
        <mxCell id="M_J3pWoGOmPgmqdxh5I2-10" value="" style="endArrow=none;html=1;rounded=0;entryX=0;entryY=0.5;entryDx=0;entryDy=0;exitX=1;exitY=0.5;exitDx=0;exitDy=0;" parent="1" source="M_J3pWoGOmPgmqdxh5I2-9" target="M_J3pWoGOmPgmqdxh5I2-9" edge="1">
          <mxGeometry width="50" height="50" relative="1" as="geometry">
            <mxPoint x="320" y="440" as="sourcePoint" />
            <mxPoint x="120" y="440" as="targetPoint" />
            <Array as="points" />
          </mxGeometry>
        </mxCell>
        <mxCell id="M_J3pWoGOmPgmqdxh5I2-14" value="ValueValidator" style="swimlane;whiteSpace=wrap;html=1;startSize=23;" parent="1" vertex="1">
          <mxGeometry x="315" y="630" width="260" height="100" as="geometry" />
        </mxCell>
        <mxCell id="M_J3pWoGOmPgmqdxh5I2-17" value="Cart" style="swimlane;whiteSpace=wrap;html=1;startSize=23;" parent="1" vertex="1">
          <mxGeometry x="345" y="140" width="205" height="110" as="geometry" />
        </mxCell>
        <mxCell id="M_J3pWoGOmPgmqdxh5I2-18" value="-&amp;nbsp; &amp;nbsp; _items: List&amp;lt;Item&amp;gt;" style="text;html=1;align=left;verticalAlign=middle;resizable=0;points=[];autosize=1;strokeColor=none;fillColor=none;" parent="M_J3pWoGOmPgmqdxh5I2-17" vertex="1">
          <mxGeometry x="15" y="20" width="140" height="30" as="geometry" />
        </mxCell>
        <mxCell id="M_J3pWoGOmPgmqdxh5I2-20" value="+&amp;nbsp; &amp;nbsp;Items{get;set;}(): List&amp;lt;Item&amp;gt;&lt;div&gt;+&amp;nbsp; &amp;nbsp;Amount{get;set;}(): double&lt;/div&gt;&lt;div&gt;+&amp;nbsp; &amp;nbsp;Cart(): void&lt;/div&gt;" style="text;html=1;align=left;verticalAlign=middle;resizable=0;points=[];autosize=1;strokeColor=none;fillColor=none;" parent="M_J3pWoGOmPgmqdxh5I2-17" vertex="1">
          <mxGeometry x="7.5" y="50" width="190" height="60" as="geometry" />
        </mxCell>
        <mxCell id="M_J3pWoGOmPgmqdxh5I2-21" value="&quot;enumeration&quot; Categoty" style="swimlane;whiteSpace=wrap;html=1;startSize=35;" parent="1" vertex="1">
          <mxGeometry x="980" y="365" width="100" height="160" as="geometry" />
        </mxCell>
        <mxCell id="M_J3pWoGOmPgmqdxh5I2-22" value="&lt;div&gt;Phones&lt;/div&gt;&lt;div&gt;Computers&lt;/div&gt;&lt;div&gt;Monitors&lt;/div&gt;&lt;div&gt;Keyboards&lt;/div&gt;&lt;div&gt;Games&lt;/div&gt;&lt;div&gt;Laptops&lt;/div&gt;&lt;div&gt;Wires&lt;/div&gt;" style="text;html=1;align=left;verticalAlign=middle;resizable=0;points=[];autosize=1;strokeColor=none;fillColor=none;" parent="M_J3pWoGOmPgmqdxh5I2-21" vertex="1">
          <mxGeometry x="10" y="40" width="80" height="110" as="geometry" />
        </mxCell>
        <mxCell id="M_J3pWoGOmPgmqdxh5I2-23" value="Store" style="swimlane;whiteSpace=wrap;html=1;" parent="1" vertex="1">
          <mxGeometry x="330" y="-60" width="255" height="170" as="geometry" />
        </mxCell>
        <mxCell id="M_J3pWoGOmPgmqdxh5I2-24" value="-&amp;nbsp; &amp;nbsp;_items: List&amp;lt;Item&amp;gt;&lt;div&gt;-&amp;nbsp; &amp;nbsp;_customer: List&amp;lt;Customer&amp;gt;&lt;/div&gt;" style="text;html=1;align=left;verticalAlign=middle;resizable=0;points=[];autosize=1;strokeColor=none;fillColor=none;" parent="M_J3pWoGOmPgmqdxh5I2-23" vertex="1">
          <mxGeometry x="5" y="30" width="180" height="40" as="geometry" />
        </mxCell>
        <mxCell id="M_J3pWoGOmPgmqdxh5I2-26" value="+&amp;nbsp; &amp;nbsp;Items {get; set;}(): List&amp;lt;Item&amp;gt;&lt;div&gt;+&amp;nbsp; &amp;nbsp;Customers {get;set;}(): List&amp;lt;Customer&amp;gt;&lt;/div&gt;&lt;div&gt;+&amp;nbsp; &amp;nbsp;Store(): void&lt;/div&gt;" style="text;html=1;align=left;verticalAlign=middle;resizable=0;points=[];autosize=1;strokeColor=none;fillColor=none;" parent="M_J3pWoGOmPgmqdxh5I2-23" vertex="1">
          <mxGeometry x="5" y="110" width="250" height="60" as="geometry" />
        </mxCell>
        <mxCell id="M_J3pWoGOmPgmqdxh5I2-25" value="" style="endArrow=none;html=1;rounded=0;exitX=0;exitY=0.5;exitDx=0;exitDy=0;entryX=1;entryY=0.5;entryDx=0;entryDy=0;" parent="1" source="M_J3pWoGOmPgmqdxh5I2-23" target="M_J3pWoGOmPgmqdxh5I2-23" edge="1">
          <mxGeometry width="50" height="50" relative="1" as="geometry">
            <mxPoint x="400" y="120" as="sourcePoint" />
            <mxPoint x="450" y="70" as="targetPoint" />
          </mxGeometry>
        </mxCell>
        <mxCell id="M_J3pWoGOmPgmqdxh5I2-27" value="Order" style="swimlane;whiteSpace=wrap;html=1;" parent="1" vertex="1">
          <mxGeometry x="320" y="770" width="262.5" height="230" as="geometry">
            <mxRectangle x="357.5" y="770" width="70" height="30" as="alternateBounds" />
          </mxGeometry>
        </mxCell>
        <mxCell id="M_J3pWoGOmPgmqdxh5I2-28" value="-&amp;nbsp; &amp;nbsp;_id: int&lt;div&gt;-&amp;nbsp; &amp;nbsp;_data: DateTime&lt;/div&gt;&lt;div&gt;-&amp;nbsp; &amp;nbsp;_customerFullname: string&lt;/div&gt;" style="text;html=1;align=left;verticalAlign=middle;resizable=0;points=[];autosize=1;strokeColor=none;fillColor=none;" parent="M_J3pWoGOmPgmqdxh5I2-27" vertex="1">
          <mxGeometry x="12.5" y="20" width="180" height="60" as="geometry" />
        </mxCell>
        <mxCell id="M_J3pWoGOmPgmqdxh5I2-30" value="+&amp;nbsp; &amp;nbsp;Id {get;set;}(): int&lt;div&gt;+&amp;nbsp; &amp;nbsp;Date {get;}(): DateTime&lt;/div&gt;&lt;div&gt;+&amp;nbsp; &amp;nbsp;CustomerFullname {get;set;}(): string&lt;/div&gt;&lt;div&gt;+&amp;nbsp; &amp;nbsp;Address {get;set;}(): Address&lt;/div&gt;&lt;div&gt;+&amp;nbsp; &amp;nbsp;items {get;set;}(): List&amp;lt;Items&lt;span style=&quot;font-size: 8.33333px;&quot;&gt;&amp;gt;&lt;/span&gt;&lt;/div&gt;&lt;div&gt;+&amp;nbsp; &amp;nbsp;OrderStatus {get;set;}(): OrderStatus&lt;/div&gt;&lt;div&gt;+&amp;nbsp; &amp;nbsp;Amount {get;}(): double&lt;/div&gt;&lt;div&gt;+&amp;nbsp; &amp;nbsp;Order(Address, List&amp;lt;Item&amp;gt;, string): void&lt;/div&gt;&lt;div&gt;+&amp;nbsp; &amp;nbsp;Order(): void&lt;/div&gt;" style="text;html=1;align=left;verticalAlign=middle;resizable=0;points=[];autosize=1;strokeColor=none;fillColor=none;" parent="M_J3pWoGOmPgmqdxh5I2-27" vertex="1">
          <mxGeometry x="6.25" y="90" width="250" height="140" as="geometry" />
        </mxCell>
        <mxCell id="M_J3pWoGOmPgmqdxh5I2-29" value="" style="endArrow=none;html=1;rounded=0;exitX=0;exitY=0.5;exitDx=0;exitDy=0;entryX=1;entryY=0.5;entryDx=0;entryDy=0;" parent="M_J3pWoGOmPgmqdxh5I2-27" edge="1">
          <mxGeometry width="50" height="50" relative="1" as="geometry">
            <mxPoint y="80" as="sourcePoint" />
            <mxPoint x="262.5" y="80" as="targetPoint" />
          </mxGeometry>
        </mxCell>
        <mxCell id="M_J3pWoGOmPgmqdxh5I2-31" value="&quot;enumeration&quot;&lt;br&gt;OrderStatus" style="swimlane;whiteSpace=wrap;html=1;startSize=30;" parent="1" vertex="1">
          <mxGeometry x="680" y="740" width="100" height="160" as="geometry" />
        </mxCell>
        <mxCell id="M_J3pWoGOmPgmqdxh5I2-32" value="&lt;div style=&quot;text-align: left;&quot;&gt;&lt;span style=&quot;background-color: initial;&quot;&gt;New&lt;/span&gt;&lt;/div&gt;&lt;span style=&quot;background-color: initial;&quot;&gt;&lt;div style=&quot;text-align: left;&quot;&gt;&lt;span style=&quot;background-color: initial;&quot;&gt;Processing&lt;/span&gt;&lt;/div&gt;&lt;div style=&quot;text-align: left;&quot;&gt;&lt;span style=&quot;background-color: initial;&quot;&gt;Assembly&lt;/span&gt;&lt;/div&gt;&lt;div style=&quot;text-align: left;&quot;&gt;&lt;span style=&quot;background-color: initial;&quot;&gt;Sent&lt;/span&gt;&lt;/div&gt;&lt;div style=&quot;text-align: left;&quot;&gt;Delivered&lt;br&gt;Returned&lt;br&gt;Abandoned&lt;/div&gt;&lt;/span&gt;" style="text;html=1;align=center;verticalAlign=middle;resizable=0;points=[];autosize=1;strokeColor=none;fillColor=none;" parent="M_J3pWoGOmPgmqdxh5I2-31" vertex="1">
          <mxGeometry x="10" y="40" width="80" height="110" as="geometry" />
        </mxCell>
        <mxCell id="M_J3pWoGOmPgmqdxh5I2-33" value="Address" style="swimlane;whiteSpace=wrap;html=1;" parent="1" vertex="1">
          <mxGeometry x="-380" y="260" width="320" height="265" as="geometry" />
        </mxCell>
        <mxCell id="M_J3pWoGOmPgmqdxh5I2-34" value="-&amp;nbsp; &amp;nbsp;_index: int&lt;div&gt;-&amp;nbsp; &amp;nbsp;_country: string&lt;/div&gt;&lt;div&gt;-&amp;nbsp; &amp;nbsp;_city: string&lt;/div&gt;&lt;div&gt;-&amp;nbsp; &amp;nbsp;_street: string&lt;/div&gt;&lt;div&gt;-&amp;nbsp; &amp;nbsp;_building: string&lt;/div&gt;&lt;div&gt;-&amp;nbsp; &amp;nbsp;_apartment: string&lt;/div&gt;&lt;div&gt;&lt;br&gt;&lt;/div&gt;" style="text;html=1;align=left;verticalAlign=middle;resizable=0;points=[];autosize=1;strokeColor=none;fillColor=none;" parent="M_J3pWoGOmPgmqdxh5I2-33" vertex="1">
          <mxGeometry x="10" y="25" width="130" height="110" as="geometry" />
        </mxCell>
        <mxCell id="M_J3pWoGOmPgmqdxh5I2-35" value="" style="endArrow=none;html=1;rounded=0;" parent="M_J3pWoGOmPgmqdxh5I2-33" edge="1">
          <mxGeometry width="50" height="50" relative="1" as="geometry">
            <mxPoint y="130" as="sourcePoint" />
            <mxPoint x="320" y="130" as="targetPoint" />
            <Array as="points" />
          </mxGeometry>
        </mxCell>
        <mxCell id="M_J3pWoGOmPgmqdxh5I2-36" value="+&amp;nbsp; &amp;nbsp;Index {get;set;}(): int&lt;div&gt;+&amp;nbsp; &amp;nbsp;Country {get;set;}(): string&lt;/div&gt;&lt;div&gt;+&amp;nbsp; &amp;nbsp;City {get;set;}():&amp;nbsp; string&lt;/div&gt;&lt;div&gt;+&amp;nbsp; &amp;nbsp;Street {get;set;}(): string&lt;/div&gt;&lt;div&gt;+&amp;nbsp; &amp;nbsp;Building {get;set;}(): string&lt;/div&gt;&lt;div&gt;+&amp;nbsp; &amp;nbsp;Apartment {get;set;}(): string&lt;/div&gt;&lt;div&gt;+&amp;nbsp; &amp;nbsp;Address(int, string, string, string, string, string): void&lt;/div&gt;&lt;div&gt;+&amp;nbsp; &amp;nbsp;Address(): void&lt;/div&gt;" style="text;html=1;align=left;verticalAlign=middle;resizable=0;points=[];autosize=1;strokeColor=none;fillColor=none;" parent="M_J3pWoGOmPgmqdxh5I2-33" vertex="1">
          <mxGeometry x="10" y="135" width="310" height="130" as="geometry" />
        </mxCell>
        <mxCell id="M_J3pWoGOmPgmqdxh5I2-16" value="&amp;nbsp; &amp;nbsp; AssertStringOnLength(string, int, string)&lt;div&gt;&amp;nbsp; &amp;nbsp; AssertStringOnLength(double, int, int, string)&lt;/div&gt;" style="text;html=1;align=left;verticalAlign=middle;resizable=0;points=[];autosize=1;strokeColor=none;fillColor=none;" parent="1" vertex="1">
          <mxGeometry x="310" y="660" width="270" height="40" as="geometry" />
        </mxCell>
        <mxCell id="M_J3pWoGOmPgmqdxh5I2-43" style="edgeStyle=orthogonalEdgeStyle;rounded=0;orthogonalLoop=1;jettySize=auto;html=1;dashed=1;" parent="1" source="M_J3pWoGOmPgmqdxh5I2-6" target="M_J3pWoGOmPgmqdxh5I2-16" edge="1">
          <mxGeometry relative="1" as="geometry">
            <Array as="points">
              <mxPoint x="740" y="680" />
            </Array>
          </mxGeometry>
        </mxCell>
        <mxCell id="M_J3pWoGOmPgmqdxh5I2-47" value="" style="endArrow=diamondThin;endFill=0;endSize=24;html=1;rounded=0;entryX=1;entryY=0.75;entryDx=0;entryDy=0;exitX=1.009;exitY=0.35;exitDx=0;exitDy=0;exitPerimeter=0;startArrow=classic;startFill=1;" parent="1" source="M_J3pWoGOmPgmqdxh5I2-6" target="M_J3pWoGOmPgmqdxh5I2-27" edge="1">
          <mxGeometry width="160" relative="1" as="geometry">
            <mxPoint x="880" y="480" as="sourcePoint" />
            <mxPoint x="970" y="870" as="targetPoint" />
            <Array as="points">
              <mxPoint x="880" y="485" />
              <mxPoint x="880" y="943" />
            </Array>
          </mxGeometry>
        </mxCell>
        <mxCell id="M_J3pWoGOmPgmqdxh5I2-64" value="*" style="edgeLabel;html=1;align=center;verticalAlign=middle;resizable=0;points=[];" parent="M_J3pWoGOmPgmqdxh5I2-47" vertex="1" connectable="0">
          <mxGeometry x="0.9668" y="-2" relative="1" as="geometry">
            <mxPoint x="-7" y="-11" as="offset" />
          </mxGeometry>
        </mxCell>
        <mxCell id="M_J3pWoGOmPgmqdxh5I2-48" value="" style="endArrow=diamondThin;endFill=1;endSize=24;html=1;rounded=0;entryX=1;entryY=0.5;entryDx=0;entryDy=0;exitX=0;exitY=0.5;exitDx=0;exitDy=0;startArrow=classic;startFill=1;" parent="1" source="M_J3pWoGOmPgmqdxh5I2-21" target="M_J3pWoGOmPgmqdxh5I2-3" edge="1">
          <mxGeometry width="160" relative="1" as="geometry">
            <mxPoint x="360" y="600" as="sourcePoint" />
            <mxPoint x="520" y="600" as="targetPoint" />
          </mxGeometry>
        </mxCell>
        <mxCell id="M_J3pWoGOmPgmqdxh5I2-57" value="1" style="edgeLabel;html=1;align=center;verticalAlign=middle;resizable=0;points=[];" parent="M_J3pWoGOmPgmqdxh5I2-48" vertex="1" connectable="0">
          <mxGeometry x="0.771" y="-2" relative="1" as="geometry">
            <mxPoint x="6" y="-10" as="offset" />
          </mxGeometry>
        </mxCell>
        <mxCell id="M_J3pWoGOmPgmqdxh5I2-49" value="" style="endArrow=diamondThin;endFill=1;endSize=24;html=1;rounded=0;startArrow=classic;startFill=1;entryX=1;entryY=0.25;entryDx=0;entryDy=0;fontStyle=0" parent="1" target="M_J3pWoGOmPgmqdxh5I2-27" edge="1">
          <mxGeometry width="160" relative="1" as="geometry">
            <mxPoint x="680" y="830" as="sourcePoint" />
            <mxPoint x="580" y="810" as="targetPoint" />
            <Array as="points">
              <mxPoint x="680" y="830" />
            </Array>
          </mxGeometry>
        </mxCell>
        <mxCell id="M_J3pWoGOmPgmqdxh5I2-58" value="1" style="edgeLabel;html=1;align=center;verticalAlign=middle;resizable=0;points=[];" parent="M_J3pWoGOmPgmqdxh5I2-49" vertex="1" connectable="0">
          <mxGeometry x="0.7484" y="-3" relative="1" as="geometry">
            <mxPoint x="-8" y="-10" as="offset" />
          </mxGeometry>
        </mxCell>
        <mxCell id="M_J3pWoGOmPgmqdxh5I2-50" value="" style="endArrow=diamondThin;endFill=1;endSize=24;html=1;rounded=0;entryX=0.25;entryY=1;entryDx=0;entryDy=0;exitX=0;exitY=0.25;exitDx=0;exitDy=0;startArrow=classic;startFill=1;" parent="1" source="M_J3pWoGOmPgmqdxh5I2-27" target="M_J3pWoGOmPgmqdxh5I2-9" edge="1">
          <mxGeometry width="160" relative="1" as="geometry">
            <mxPoint x="620" y="520" as="sourcePoint" />
            <mxPoint x="780" y="520" as="targetPoint" />
            <Array as="points">
              <mxPoint x="150" y="828" />
            </Array>
          </mxGeometry>
        </mxCell>
        <mxCell id="M_J3pWoGOmPgmqdxh5I2-66" value="1" style="edgeLabel;html=1;align=center;verticalAlign=middle;resizable=0;points=[];" parent="M_J3pWoGOmPgmqdxh5I2-50" vertex="1" connectable="0">
          <mxGeometry x="0.9512" y="3" relative="1" as="geometry">
            <mxPoint x="-9" y="11" as="offset" />
          </mxGeometry>
        </mxCell>
        <mxCell id="M_J3pWoGOmPgmqdxh5I2-51" value="" style="endArrow=diamondThin;endFill=1;endSize=24;html=1;rounded=0;entryX=0.5;entryY=0;entryDx=0;entryDy=0;exitX=0;exitY=0.5;exitDx=0;exitDy=0;startArrow=classic;startFill=1;" parent="1" source="M_J3pWoGOmPgmqdxh5I2-17" target="M_J3pWoGOmPgmqdxh5I2-9" edge="1">
          <mxGeometry width="160" relative="1" as="geometry">
            <mxPoint x="80" y="270" as="sourcePoint" />
            <mxPoint x="240" y="270" as="targetPoint" />
            <Array as="points">
              <mxPoint x="215" y="195" />
            </Array>
          </mxGeometry>
        </mxCell>
        <mxCell id="M_J3pWoGOmPgmqdxh5I2-61" value="1" style="edgeLabel;html=1;align=center;verticalAlign=middle;resizable=0;points=[];" parent="M_J3pWoGOmPgmqdxh5I2-51" vertex="1" connectable="0">
          <mxGeometry x="0.8877" y="1" relative="1" as="geometry">
            <mxPoint x="10" y="-8" as="offset" />
          </mxGeometry>
        </mxCell>
        <mxCell id="M_J3pWoGOmPgmqdxh5I2-52" value="" style="endArrow=diamondThin;endFill=0;endSize=24;html=1;rounded=0;exitX=0.25;exitY=0;exitDx=0;exitDy=0;startArrow=classic;startFill=1;" parent="1" source="M_J3pWoGOmPgmqdxh5I2-3" edge="1">
          <mxGeometry width="160" relative="1" as="geometry">
            <mxPoint x="600" y="200" as="sourcePoint" />
            <mxPoint x="550" y="220" as="targetPoint" />
            <Array as="points">
              <mxPoint x="655" y="220" />
            </Array>
          </mxGeometry>
        </mxCell>
        <mxCell id="M_J3pWoGOmPgmqdxh5I2-62" value="*" style="edgeLabel;html=1;align=center;verticalAlign=middle;resizable=0;points=[];" parent="M_J3pWoGOmPgmqdxh5I2-52" vertex="1" connectable="0">
          <mxGeometry x="0.8747" y="-3" relative="1" as="geometry">
            <mxPoint x="-8" y="-9" as="offset" />
          </mxGeometry>
        </mxCell>
        <mxCell id="M_J3pWoGOmPgmqdxh5I2-53" value="" style="endArrow=none;html=1;rounded=0;entryX=1;entryY=0.5;entryDx=0;entryDy=0;exitX=0;exitY=0.5;exitDx=0;exitDy=0;" parent="1" source="M_J3pWoGOmPgmqdxh5I2-17" target="M_J3pWoGOmPgmqdxh5I2-17" edge="1">
          <mxGeometry width="50" height="50" relative="1" as="geometry">
            <mxPoint x="480" y="570" as="sourcePoint" />
            <mxPoint x="530" y="520" as="targetPoint" />
          </mxGeometry>
        </mxCell>
        <mxCell id="M_J3pWoGOmPgmqdxh5I2-54" value="" style="endArrow=diamondThin;endFill=1;endSize=24;html=1;rounded=0;entryX=1;entryY=0.5;entryDx=0;entryDy=0;exitX=0.5;exitY=0;exitDx=0;exitDy=0;startArrow=classic;startFill=1;" parent="1" source="M_J3pWoGOmPgmqdxh5I2-3" target="M_J3pWoGOmPgmqdxh5I2-23" edge="1">
          <mxGeometry width="160" relative="1" as="geometry">
            <mxPoint x="670" y="20" as="sourcePoint" />
            <mxPoint x="830" y="20" as="targetPoint" />
            <Array as="points">
              <mxPoint x="720" y="25" />
            </Array>
          </mxGeometry>
        </mxCell>
        <mxCell id="M_J3pWoGOmPgmqdxh5I2-59" value="1" style="edgeLabel;html=1;align=center;verticalAlign=middle;resizable=0;points=[];" parent="M_J3pWoGOmPgmqdxh5I2-54" vertex="1" connectable="0">
          <mxGeometry x="0.9236" y="1" relative="1" as="geometry">
            <mxPoint x="6" y="-12" as="offset" />
          </mxGeometry>
        </mxCell>
        <mxCell id="M_J3pWoGOmPgmqdxh5I2-55" value="" style="endArrow=diamondThin;endFill=1;endSize=24;html=1;rounded=0;entryX=0;entryY=0.5;entryDx=0;entryDy=0;exitX=0.25;exitY=0;exitDx=0;exitDy=0;startArrow=classic;startFill=1;" parent="1" source="M_J3pWoGOmPgmqdxh5I2-9" target="M_J3pWoGOmPgmqdxh5I2-23" edge="1">
          <mxGeometry width="160" relative="1" as="geometry">
            <mxPoint x="90" y="30" as="sourcePoint" />
            <mxPoint x="250" y="30" as="targetPoint" />
            <Array as="points">
              <mxPoint x="150" y="25" />
            </Array>
          </mxGeometry>
        </mxCell>
        <mxCell id="M_J3pWoGOmPgmqdxh5I2-60" value="1" style="edgeLabel;html=1;align=center;verticalAlign=middle;resizable=0;points=[];" parent="M_J3pWoGOmPgmqdxh5I2-55" vertex="1" connectable="0">
          <mxGeometry x="0.9256" relative="1" as="geometry">
            <mxPoint x="-7" y="-11" as="offset" />
          </mxGeometry>
        </mxCell>
        <mxCell id="M_J3pWoGOmPgmqdxh5I2-56" value="" style="endArrow=diamondThin;endFill=1;endSize=24;html=1;rounded=0;entryX=0;entryY=0.5;entryDx=0;entryDy=0;exitX=1;exitY=0.5;exitDx=0;exitDy=0;startArrow=classic;startFill=1;" parent="1" source="M_J3pWoGOmPgmqdxh5I2-33" target="M_J3pWoGOmPgmqdxh5I2-9" edge="1">
          <mxGeometry width="160" relative="1" as="geometry">
            <mxPoint x="-110" y="570" as="sourcePoint" />
            <mxPoint x="50" y="570" as="targetPoint" />
            <Array as="points">
              <mxPoint y="393" />
              <mxPoint y="435" />
            </Array>
          </mxGeometry>
        </mxCell>
        <mxCell id="M_J3pWoGOmPgmqdxh5I2-67" value="1" style="edgeLabel;html=1;align=center;verticalAlign=middle;resizable=0;points=[];" parent="M_J3pWoGOmPgmqdxh5I2-56" vertex="1" connectable="0">
          <mxGeometry x="0.8404" y="2" relative="1" as="geometry">
            <mxPoint x="-7" y="-11" as="offset" />
          </mxGeometry>
        </mxCell>
        <mxCell id="SCQkJ5_BAsJzuIoX8Pt--1" value="1" style="text;html=1;align=center;verticalAlign=middle;resizable=0;points=[];autosize=1;strokeColor=none;fillColor=none;" vertex="1" parent="1">
          <mxGeometry x="715" y="318" width="30" height="30" as="geometry" />
        </mxCell>
        <mxCell id="SCQkJ5_BAsJzuIoX8Pt--2" value="1" style="text;html=1;align=center;verticalAlign=middle;resizable=0;points=[];autosize=1;strokeColor=none;fillColor=none;" vertex="1" parent="1">
          <mxGeometry x="655" y="318" width="30" height="30" as="geometry" />
        </mxCell>
        <mxCell id="SCQkJ5_BAsJzuIoX8Pt--3" value="1" style="text;html=1;align=center;verticalAlign=middle;resizable=0;points=[];autosize=1;strokeColor=none;fillColor=none;" vertex="1" parent="1">
          <mxGeometry x="955" y="418" width="30" height="30" as="geometry" />
        </mxCell>
        <mxCell id="SCQkJ5_BAsJzuIoX8Pt--4" value="1" style="text;html=1;align=center;verticalAlign=middle;resizable=0;points=[];autosize=1;strokeColor=none;fillColor=none;" vertex="1" parent="1">
          <mxGeometry x="150" y="290" width="30" height="30" as="geometry" />
        </mxCell>
        <mxCell id="SCQkJ5_BAsJzuIoX8Pt--5" value="1" style="text;html=1;align=center;verticalAlign=middle;resizable=0;points=[];autosize=1;strokeColor=none;fillColor=none;" vertex="1" parent="1">
          <mxGeometry x="-65" y="368" width="30" height="30" as="geometry" />
        </mxCell>
        <mxCell id="SCQkJ5_BAsJzuIoX8Pt--6" value="1" style="text;html=1;align=center;verticalAlign=middle;resizable=0;points=[];autosize=1;strokeColor=none;fillColor=none;" vertex="1" parent="1">
          <mxGeometry x="295" y="798" width="30" height="30" as="geometry" />
        </mxCell>
        <mxCell id="SCQkJ5_BAsJzuIoX8Pt--7" value="1" style="text;html=1;align=center;verticalAlign=middle;resizable=0;points=[];autosize=1;strokeColor=none;fillColor=none;" vertex="1" parent="1">
          <mxGeometry x="655" y="798" width="30" height="30" as="geometry" />
        </mxCell>
      </root>
    </mxGraphModel>
  </diagram>
</mxfile>
